<svg width="133" height="36" viewBox="0 0 133 36" fill="none" xmlns="http://www.w3.org/2000/svg">
<path d="M80.4147 25.3459C72.2783 25.3459 65.6602 18.5931 65.6602 10.291H70.9644C70.9644 15.608 75.2038 19.9359 80.4169 19.9359V25.3459H80.4147Z" fill="#6E50E6"/>
<path d="M70.9625 34.9963H65.6582C65.6582 26.6942 72.2763 19.9414 80.4128 19.9414V25.3514C75.2041 25.3536 70.9625 29.6793 70.9625 34.9963Z" fill="#F08C14"/>
<path d="M15.9528 10.2543V15.036H9.22132V35.308H3.26792V15.036H0V10.2067H3.26792V8.38977C3.26792 5.58612 3.95708 3.50607 5.33316 2.14961C6.71147 0.795419 8.67222 0.117188 11.2199 0.117188C12.2603 0.117188 13.1539 0.1807 13.9031 0.307726C14.6501 0.434752 15.3503 0.595804 16.0017 0.786343V5.66324C15.417 5.47271 14.8546 5.32073 14.3188 5.20958C13.7831 5.09843 13.1873 5.04173 12.5382 5.04173C10.2617 5.04173 9.12351 6.31653 9.12351 8.86612V10.2521H15.9528V10.2543Z" fill="#211C36"/>
<path d="M35.1278 34.5661C33.5005 35.4417 31.4353 35.8818 28.9321 35.8818C27.0113 35.8818 25.2395 35.5393 23.6123 34.8542C21.985 34.1692 20.5733 33.2278 19.3751 32.0324C18.1791 30.837 17.2431 29.4511 16.5718 27.8723C15.9004 26.2936 15.5625 24.5968 15.5625 22.7799C15.5625 20.963 15.8982 19.2572 16.5718 17.6648C17.2454 16.0702 18.1791 14.6684 19.3751 13.4571C20.5711 12.2458 21.9916 11.2886 23.6367 10.5877C25.2796 9.88675 27.0602 9.53516 28.981 9.53516C31.4219 9.53516 33.4449 9.93438 35.0544 10.7306C36.6639 11.5267 38.0711 12.5793 39.2761 13.8858L35.6169 17.7578C34.7054 16.8346 33.7384 16.077 32.7135 15.4872C31.6887 14.8975 30.4282 14.6026 28.9321 14.6026C27.8583 14.6026 26.8668 14.8181 25.9554 15.2491C25.0439 15.68 24.2636 16.2607 23.6145 16.9934C22.9631 17.7261 22.4518 18.579 22.0783 19.5521C21.7049 20.5252 21.5181 21.5686 21.5181 22.6846C21.5181 23.8324 21.7049 24.9008 22.0783 25.8875C22.4518 26.8765 22.9809 27.7362 23.6634 28.4689C24.3459 29.2015 25.1595 29.7845 26.1021 30.2132C27.0447 30.6442 28.0851 30.8597 29.2255 30.8597C30.6238 30.8597 31.851 30.5648 32.9092 29.975C33.9651 29.3853 34.9655 28.6299 35.9103 27.7044L39.4717 31.1478C38.2001 32.5496 36.7529 33.6906 35.1278 34.5661Z" fill="#211C36"/>
<path d="M60.2531 31.3391C59.764 32.3281 59.0904 33.1492 58.2279 33.8025C57.3653 34.4557 56.3494 34.9502 55.1778 35.2837C54.0063 35.6194 52.7547 35.785 51.4208 35.785C49.5668 35.785 47.6883 35.4651 45.7853 34.8277C43.8824 34.1903 42.1173 33.249 40.4922 32.0059L43.1265 28.084C44.5248 29.1048 45.9476 29.876 47.3948 30.4022C48.8421 30.9285 50.2315 31.1916 51.5676 31.1916C52.8369 31.1916 53.8195 30.9444 54.5198 30.4499C55.2178 29.9554 55.5691 29.2953 55.5691 28.4651V28.3698C55.5691 27.8912 55.4135 27.4784 55.1045 27.1268C54.7955 26.7775 54.3731 26.4667 53.8351 26.1945C53.2971 25.9246 52.6791 25.6864 51.981 25.4777C51.2808 25.2713 50.5583 25.0558 49.8091 24.8312C48.8643 24.5454 47.915 24.2256 46.9547 23.874C45.9943 23.5247 45.1317 23.0687 44.3692 22.5107C43.6045 21.9527 42.9776 21.2677 42.4907 20.4556C42.0039 19.6436 41.7593 18.6319 41.7593 17.4206V17.3253C41.7593 16.1458 41.995 15.0774 42.4663 14.1225C42.9376 13.1675 43.5889 12.3532 44.4181 11.684C45.2473 11.0148 46.2233 10.5045 47.3459 10.1552C48.4686 9.80583 49.6646 9.62891 50.9318 9.62891C52.5568 9.62891 54.1997 9.88523 55.8603 10.3933C57.5187 10.9037 59.0304 11.6046 60.3976 12.4961L58.0567 16.6085C56.8207 15.8759 55.5691 15.2929 54.2997 14.8642C53.0303 14.4332 51.861 14.2177 50.7873 14.2177C49.649 14.2177 48.762 14.4559 48.1285 14.9345C47.4949 15.4131 47.177 16.0188 47.177 16.7514V16.8467C47.177 17.2936 47.3393 17.6837 47.6638 18.0194C47.9884 18.3552 48.4197 18.6568 48.9577 18.929C49.4934 19.2012 50.1114 19.4553 50.8117 19.6935C51.5098 19.9316 52.2345 20.163 52.9837 20.3876C53.9262 20.6734 54.8688 21.0091 55.8136 21.3924C56.7562 21.7758 57.6099 22.2453 58.3746 22.8033C59.1394 23.3614 59.7663 24.0396 60.2531 24.8358C60.74 25.6319 60.9845 26.6051 60.9845 27.7528V27.8481C60.9845 29.1887 60.74 30.3523 60.2531 31.3391Z" fill="#211C36"/>
<path d="M85.8105 24.6861L86.4864 23.6246C87.091 24.0714 87.7268 24.3051 88.247 24.3051C88.705 24.3051 88.914 24.1349 88.914 23.8809V23.8605C88.914 23.5089 88.3715 23.3932 87.758 23.2004C86.9777 22.9667 86.0906 22.5947 86.0906 21.4901V21.4696C86.0906 20.3105 87.0066 19.6641 88.1314 19.6641C88.8406 19.6641 89.6098 19.909 90.2145 20.3219L89.6098 21.4379C89.0585 21.109 88.5071 20.9071 88.1003 20.9071C87.7157 20.9071 87.5179 21.0772 87.5179 21.2995V21.3199C87.5179 21.6398 88.0492 21.7872 88.6539 22.0004C89.4342 22.2658 90.3412 22.6492 90.3412 23.6903V23.7108C90.3412 24.9765 89.4142 25.5504 88.2048 25.5504C87.4245 25.5458 86.5486 25.2804 85.8105 24.6861Z" fill="#211C36"/>
<path d="M91.207 22.6241V22.6014C91.207 20.966 92.4986 19.6367 94.2371 19.6367C95.9666 19.6367 97.2471 20.9433 97.2471 22.581V22.6014C97.2471 24.2392 95.9555 25.5661 94.2171 25.5661C92.4875 25.5684 91.207 24.2596 91.207 22.6241ZM95.6843 22.6241V22.6014C95.6843 21.7621 95.0907 21.0295 94.2171 21.0295C93.3101 21.0295 92.7698 21.7417 92.7698 22.581V22.6014C92.7698 23.4407 93.3634 24.1734 94.2371 24.1734C95.1441 24.1756 95.6843 23.4634 95.6843 22.6241Z" fill="#211C36"/>
<path d="M98.4668 17.6816H100.05V25.4393H98.4668V17.6816Z" fill="#211C36"/>
<path d="M101.496 23.4324V19.7441H103.079V22.9221C103.079 23.6865 103.432 24.0812 104.037 24.0812C104.642 24.0812 105.026 23.6888 105.026 22.9221V19.7441H106.609V25.4399H105.026V24.6324C104.662 25.111 104.193 25.5465 103.39 25.5465C102.194 25.5465 101.496 24.739 101.496 23.4324Z" fill="#211C36"/>
<path d="M108.288 23.8241V21.1248H107.621V19.7434H108.288V18.2871H109.871V19.7434H111.182V21.1248H109.871V23.5587C109.871 23.9307 110.026 24.1122 110.38 24.1122C110.671 24.1122 110.931 24.0373 111.16 23.9103V25.2078C110.827 25.4097 110.442 25.5367 109.911 25.5367C108.946 25.5344 108.288 25.142 108.288 23.8241Z" fill="#211C36"/>
<path d="M112.383 17.6816H114.05V19.1152H112.383V17.6816ZM112.423 19.7435H114.006V25.4393H112.423V19.7435Z" fill="#211C36"/>
<path d="M115.227 22.6241V22.6014C115.227 20.966 116.518 19.6367 118.257 19.6367C119.984 19.6367 121.267 20.9433 121.267 22.581V22.6014C121.267 24.2392 119.975 25.5661 118.237 25.5661C116.507 25.5684 115.227 24.2596 115.227 22.6241ZM119.706 22.6241V22.6014C119.706 21.7621 119.112 21.0295 118.237 21.0295C117.332 21.0295 116.789 21.7417 116.789 22.581V22.6014C116.789 23.4407 117.383 24.1734 118.259 24.1734C119.164 24.1756 119.706 23.4634 119.706 22.6241Z" fill="#211C36"/>
<path d="M122.414 19.7433H123.997V20.5509C124.361 20.0722 124.831 19.6367 125.633 19.6367C126.831 19.6367 127.527 20.4442 127.527 21.7508V25.4391H125.944V22.2612C125.944 21.4967 125.591 21.1021 124.986 21.1021C124.381 21.1021 123.997 21.4945 123.997 22.2612V25.4391H122.414V19.7433Z" fill="#211C36"/>
<path d="M128.467 24.6861L129.145 23.6246C129.75 24.0714 130.383 24.3051 130.906 24.3051C131.363 24.3051 131.572 24.1349 131.572 23.8809V23.8605C131.572 23.5089 131.03 23.3932 130.416 23.2004C129.636 22.9667 128.749 22.5947 128.749 21.4901V21.4696C128.749 20.3105 129.665 19.6641 130.79 19.6641C131.499 19.6641 132.268 19.909 132.873 20.3219L132.268 21.4379C131.717 21.109 131.163 20.9071 130.759 20.9071C130.374 20.9071 130.176 21.0772 130.176 21.2995V21.3199C130.176 21.6398 130.708 21.7872 131.312 22.0004C132.093 22.2658 133 22.6492 133 23.6903V23.7108C133 24.9765 132.073 25.5504 130.865 25.5504C130.081 25.5458 129.205 25.2804 128.467 24.6861Z" fill="#211C36"/>
</svg>
