<?xml version="1.0" encoding="UTF-8"?>
<svg id="a" data-name="Layer 1" xmlns="http://www.w3.org/2000/svg" width="306" height="70" viewBox="0 0 306 70">
  <defs>
    <style>
      .b {
        fill: #00236e;
      }

      .c {
        fill: #fff;
      }

      .d {
        fill: #20cdd1;
      }
    </style>
  </defs>
  <rect class="d" x="90" y="13" width="4" height="46"/>
  <g>
    <path class="b" d="M113.849,12.714h8.858l9.386,29.632c.331,1.145,2.049,6.667,2.181,7.61h.264c.132-.943,1.851-6.532,2.181-7.543l9.386-29.699h8.527l-15.467,45.795h-10.047l-15.269-45.795Z"/>
    <path class="b" d="M153.775,49.417v-23.369h8.064v21.012c0,4.041,1.719,5.59,5.42,5.59,2.776,0,5.42-1.414,7.007-2.828v-23.773h8.13v32.461h-7.998v-3.165h-.264c-2.181,2.021-5.685,3.839-10.113,3.839-6.742,0-10.245-3.3-10.245-9.765Z"/>
    <path class="b" d="M260.987,55.478h-.264c-1.586,1.751-4.693,3.704-9.122,3.704-6.412,0-10.311-4.175-10.311-9.496,0-6.937,5.288-10.169,14.278-10.169h5.024v-2.02c0-4.31-1.785-5.792-7.271-5.792-3.635,0-7.403.673-8.99,1.482h-.595v-5.994c2.049-1.01,6.544-1.818,11.369-1.818,10.378,0,13.617,3.502,13.617,11.045v22.089h-7.734v-3.031ZM254.113,53.458c3.041,0,5.883-1.818,6.478-3.098v-5.926h-4.032c-4.759,0-7.205,1.414-7.205,4.714,0,2.694,1.917,4.31,4.759,4.31Z"/>
    <path class="b" d="M274.537,50.158V12.896h8.064v36.454c0,2.425.992,3.3,2.908,3.3.925,0,1.718-.135,2.313-.269h.661v5.926c-1.256.404-3.569.606-5.883.606-5.486,0-8.064-2.761-8.064-8.755Z"/>
    <path class="b" d="M292.053,50.158V12.896h8.064v36.454c0,2.425.992,3.3,2.908,3.3.925,0,1.718-.135,2.313-.269h.661v5.926c-1.256.404-3.569.606-5.883.606-5.486,0-8.064-2.761-8.064-8.755Z"/>
    <g>
      <path class="d" d="M209.15,58.388v-.002s9.15-35.082,9.15-35.082l-.004-.012,2.81-10.748.008-.032h-10.899l-5.759,26.33c-.205.938-.179,1.912.077,2.838l4.616,16.708h0Z"/>
      <polygon class="d" points="199.442 32.016 194.053 12.512 183.216 12.512 196.998 58.388 206.727 58.388 199.442 32.016 199.442 32.016"/>
      <path class="d" d="M232.39,12.512l-7.204,32.777-5.569-17.779-4.383,16.804c-.155.593-.141,1.217.039,1.803l3.774,12.27h12.152l12.027-45.876h-10.837Z"/>
    </g>
  </g>
  <rect class="b" width="70" height="70"/>
  <g>
    <path class="c" d="M50.514,63.734h-11.722v-25.719h11.899c4.236,0,7.554,1.074,9.86,3.191l.014.013c2.284,2.196,3.442,5.335,3.442,9.33,0,4.12-1.218,7.384-3.619,9.701-2.395,2.312-5.718,3.484-9.875,3.484ZM44.424,59.302h5.913c2.722,0,4.617-.657,5.963-2.069,1.338-1.403,1.988-3.499,1.988-6.405,0-2.704-.693-4.759-2.06-6.108l-.05-.053c-1.212-1.431-3.123-2.126-5.842-2.126h-5.913v16.762Z"/>
    <path class="c" d="M20.006,32.475c-4.056,0-7.46-1.227-10.116-3.646-2.586-2.345-3.898-5.527-3.898-9.458,0-4.114,1.379-7.363,4.098-9.659,2.611-2.283,6.249-3.446,10.802-3.446,3.497,0,6.386.712,8.588,2.116,1.751,1.117,3.123,2.497,3.764,3.789l.581,1.171h-5.932l-.238-.243c-.358-.365-1.008-.909-1.762-1.341-1.339-.769-3.022-1.158-5.002-1.158-3.008,0-5.288.77-6.777,2.288-1.633,1.666-2.427,3.787-2.427,6.484,0,2.715.784,4.894,2.331,6.476,1.62,1.566,3.72,2.295,6.606,2.295,2.46,0,4.549-.624,6.043-1.805,1.338-1.142,2.05-2.569,2.168-4.349h-9.11v-4.242h14.381v14.276h-3.999l-.69-2.535c-1.004.846-2.175,1.516-3.545,2.031-1.413.561-3.831.956-5.868.956Z"/>
    <path class="c" d="M44.501,32.595c-1.864,0-3.278-.414-4.322-1.265-1.146-.863-1.703-1.951-1.703-3.327,0-.975.371-1.893,1.102-2.729.584-.667,1.527-1.232,2.835-1.873-.536-.503-.899-.915-1.17-1.321-.409-.614-.617-1.244-.617-1.874,0-1.036.497-1.97,1.436-2.701.861-.67,2.011-.995,3.514-.995,1.471,0,2.707.306,3.576.885.971.648,1.464,1.533,1.464,2.631,0,.846-.318,1.665-.92,2.367-.466.544-1.179,1.04-2.216,1.537l2.557,2.426c.068-.129.136-.265.203-.399.082-.337.166-.76.249-1.258l.065-.392h3.107v.469c0,.852-.122,1.517-.396,2.156-.246.575-.539,1.096-.872,1.555l4.061,3.748h-4.525l-1.61-1.53c-.623.527-1.393.944-2.433,1.322-1.033.376-2.172.566-3.387.566ZM42.55,29.425c.559.393,1.367.618,2.22.618.664,0,1.304-.129,2.076-.418.455-.17.905-.434,1.421-.835l-3.851-3.543c-1.07.508-1.686.891-2.091,1.297l-.031.029c-.364.303-.548.755-.548,1.342,0,.547.263,1.042.806,1.512ZM44.26,21.192c.262.32.642.665,1.277,1.152.709-.363,1.23-.675,1.59-1.035.343-.343.49-.673.49-1.102,0-.384-.108-.607-.426-.868-.414-.242-.866-.365-1.344-.365-.59,0-1.141.135-1.551.381-.171.103-.399.303-.399.852,0,.235.133.593.365.986Z"/>
  </g>
</svg>